HIERARCHY
ROOT Hips
{
	OFFSET 0.00000 0.00000 0.00000
	CHANNELS 6 Xposition Yposition Zposition Yrotation Zrotation Xrotation 
	JOINT Lumbar
	{
		OFFSET 0 0 0
		CHANNELS 3 Zrotation Xrotation Yrotation
		JOINT Neck
		{
			OFFSET 0.00 0.2701 0.00
			CHANNELS 3 Zrotation Xrotation Yrotation
			End Site
			{
				OFFSET 0.00 0.1379 0.00
			}
		}
		JOINT RightShoulder
		{
			OFFSET 0.0119 0.2289 0.1181
			CHANNELS 3 Zrotation Xrotation Yrotation
			JOINT RightElbow
			{
				OFFSET 0.00 -0.1475 0.00
				CHANNELS 2 Zrotation Yrotation
				JOINT RightWrist
				{
					OFFSET 0.00 -0.1605 0.00
					CHANNELS 2 Zrotation Xrotation
					End Site
					{
						OFFSET 0.0040 -0.1068 0.0006
					}
				}
			}
		}
		JOINT LeftShoulder
		{
			OFFSET 0.0119 0.2289 -0.1181
			CHANNELS 3 Zrotation Xrotation Yrotation
			JOINT LeftElbow
			{
				OFFSET 0.00 -0.1475 0.00
				CHANNELS 2 Zrotation Yrotation
				JOINT LeftWrist
				{
					OFFSET 0.00 -0.1605 0.00
					CHANNELS 2 Zrotation Xrotation
					End Site
					{
						OFFSET 0.0040 -0.1068 -0.0006
					}
				}
			}
		}
	}
	JOINT RightHip
	{
		OFFSET 0.0316 -0.0424 0.0458
		CHANNELS 3 Zrotation Xrotation Yrotation
		JOINT RightKnee
		{
			OFFSET 0.00 -0.2438 0.00
			CHANNELS 1 Zrotation
			JOINT RightAnkle
			{
				OFFSET 0.00 -0.2449 0.00
				CHANNELS 3 Zrotation Xrotation Yrotation
				End Site
				{
					OFFSET 0.1237 -0.0542 0.0051
				}
			}
		}
	}
	JOINT LeftHip
	{
		OFFSET 0.0316 -0.0424 -0.0458
		CHANNELS 3 Zrotation Xrotation Yrotation
		JOINT LeftKnee
		{
			OFFSET 0.00 -0.2438 0.00
			CHANNELS 1 Zrotation
			JOINT LeftAnkle
			{
				OFFSET 0.00 -0.2449 0.00
				CHANNELS 3 Zrotation Xrotation Yrotation
				End Site
				{
					OFFSET 0.1237 -0.0542 -0.0051
				}
			}
		}
	}
}
MOTION
Frames: 20
Frame Time: 0.02
0 0.57926 0 179.89524 0 -3.73572 7.58109 5.11516 0.73295 -25.05561 -3.07211 0.29275 21.52391 -60.45601 -73.67538 22.75986 74.88917 -24.13725 -1.88561 47.48606 72.79612 45.7723 14.21702 -92.85691 -30.34678 4.47931 -1.20018 6.99857 -2.05789 -9.68676 1.7401 -3.88323 -8.72213 -1.02877 1.49851 0.67638 -8.2919 6.13191 5.26917 9.16211
-9e-05 0.57926 -0.00015 179.8887 0 -3.72982 7.59898 5.065 0.73448 -25.16298 -2.99118 0.3069 21.90182 -60.51399 -73.34386 22.76689 74.45424 -24.22522 -1.87717 47.68126 72.79691 45.69932 14.24583 -92.68578 -30.09225 4.47897 -1.18917 7.01161 -1.99637 -9.72137 1.75136 -3.90209 -8.77997 -1.02773 1.50253 0.64928 -8.31135 6.1384 5.27839 9.20231
-0.00018 0.57925 -0.00031 179.88257 0 -3.72396 7.61659 5.01492 0.73555 -25.26913 -2.90981 0.32137 22.27648 -60.57275 -73.01463 22.77387 74.02246 -24.31306 -1.8687 47.87314 72.7968 45.6288 14.27501 -92.51579 -29.83974 4.47862 -1.17828 7.02464 -1.93544 -9.75574 1.76248 -3.92084 -8.83757 -1.02679 1.5066 0.62225 -8.33045 6.14479 5.28746 9.24201
-0.00027 0.57924 -0.00046 179.87819 0 -3.71816 7.63325 4.96447 0.73452 -25.37122 -2.82575 0.33726 22.64234 -60.63526 -72.69031 22.7809 73.5984 -24.40122 -1.86022 48.05311 72.79335 45.5687 14.3056 -92.35024 -29.59341 4.47799 -1.16779 7.0377 -1.87644 -9.78941 1.77345 -3.9393 -8.89475 -1.02618 1.5109 0.595 -8.34835 6.15077 5.296 9.28008
-0.00036 0.57923 -0.00061 179.86478 0 -3.71204 7.65498 4.91574 0.7443 -25.49454 -2.75582 0.34564 23.05542 -60.678 -72.33877 22.78788 73.13266 -24.48769 -1.85204 48.29549 72.80787 45.45501 14.32833 -92.16311 -29.31502 4.47853 -1.15524 7.05056 -1.80739 -9.82667 1.78556 -3.95924 -8.95412 -1.02377 1.51397 0.56865 -8.37261 6.15885 5.30733 9.32678
-0.00044 0.57923 -0.00076 179.87029 0 -3.7066 7.66594 4.86356 0.73142 -25.57301 -2.65616 0.36986 23.36783 -60.76243 -72.046 22.7948 72.75611 -24.57764 -1.84307 48.40608 72.78419 45.45368 14.36789 -92.0205 -29.10425 4.47679 -1.14699 7.06384 -1.75957 -9.85636 1.79505 -3.97607 -9.00882 -1.02518 1.51964 0.54061 -8.38341 6.16252 5.31277 9.3552
-0.00048 0.57922 -0.00091 179.93163 0 -3.70279 7.64647 4.79911 0.65147 -25.52379 -2.46759 0.44055 23.40441 -60.96927 -71.90555 22.80307 72.61961 -24.68016 -1.83297 48.13859 72.65181 45.78317 14.45513 -92.01192 -29.08561 4.46674 -1.15078 7.07863 -1.77177 -9.86564 1.79883 -3.98411 -9.05162 -1.03731 1.53279 0.50521 -8.35627 6.15334 5.30115 9.3321
-0.0005 0.57922 -0.00104 180.01136 0 -3.69971 7.61615 4.73165 0.54941 -25.42996 -2.25003 0.52688 23.3393 -61.21711 -71.82576 22.81102 72.57416 -24.78578 -1.82193 47.74029 72.48117 46.22255 14.55946 -92.04594 -29.1344 4.4546 -1.15848 7.09377 -1.80493 -9.86779 1.79961 -3.98899 -9.08966 -1.05306 1.54849 0.46857 -8.31594 6.13979 5.28371 9.29083
-0.00053 0.57922 -0.00118 180.08053 0 -3.69643 7.59128 4.66723 0.46028 -25.35897 -2.04989 0.6043 23.31896 -61.44164 -71.72495 22.81813 72.49093 -24.88819 -1.81052 47.41072 72.33012 46.59891 14.65505 -92.05362 -29.14863 4.44489 -1.16475 7.10857 -1.82793 -9.87218 1.80088 -3.99551 -9.12912 -1.06732 1.56284 0.43416 -8.28171 6.12868 5.26939 9.25838
-0.00057 0.57922 -0.00132 180.1594 0 -3.69255 7.56453 4.59562 0.35891 -25.27712 -1.83187 0.68906 23.30351 -61.68574 -71.59793 22.82935 72.39248 -24.99813 -1.8022 47.04219 72.17034 47.03099 14.75384 -92.09199 -29.17874 4.42951 -1.17116 7.12422 -1.85461 -9.87841 1.80617 -4.00139 -9.17128 -1.08177 1.57805 0.39265 -8.2458 6.11572 5.25302 9.22312
-0.00059 0.57922 -0.00145 180.2219 0 -3.69015 7.53874 4.53846 0.2779 -25.20732 -1.64417 0.76253 23.2552 -61.899 -71.53817 22.83198 72.34743 -25.09322 -1.78756 46.72349 72.019 47.37241 14.85112 -92.07504 -29.19259 4.4247 -1.17621 7.13807 -1.87735 -9.88206 1.80196 -4.00756 -9.20721 -1.09563 1.59201 0.36575 -8.21179 6.1055 5.23959 9.18993
-0.0006 0.57922 -0.0015 180.23912 0 -3.6911 7.5213 4.52028 0.25769 -25.18176 -1.54752 0.79891 23.13073 -62.01599 -71.66114 22.81097 72.42752 -25.14729 -1.75301 46.57897 71.90502 47.43766 14.93362 -91.90674 -29.13946 4.45589 -1.1925 7.14772 -1.89481 -9.85659 1.77567 -4.0179 -9.22256 -1.11539 1.60247 0.37866 -8.17403 6.10447 5.23527 9.16242
-0.0006 0.57923 -0.00153 180.2383 0 -3.69361 7.50444 4.51701 0.25904 -25.16996 -1.48225 0.82395 22.98023 -62.10089 -71.84551 22.78156 72.55875 -25.1872 -1.71275 46.49003 71.79932 47.40422 15.01718 -91.67842 -29.06957 4.49655 -1.20352 7.15533 -1.90566 -9.83424 1.73925 -4.0282 -9.23255 -1.13235 1.61145 0.40662 -8.14152 6.10623 5.23421 9.13853
-0.00059 0.57923 -0.00157 180.24299 0 -3.69579 7.48557 4.50803 0.25088 -25.15169 -1.40263 0.85532 22.84637 -62.20102 -71.99652 22.75567 72.66589 -25.23177 -1.67678 46.3703 71.68762 47.41964 15.10196 -91.47062 -29.0099 4.52885 -1.2075 7.16336 -1.91239 -9.82467 1.70526 -4.03677 -9.24814 -1.14571 1.62082 0.42808 -8.11384 6.10636 5.23189 9.11584
-0.00064 0.57923 -0.00162 180.26011 0 -3.69643 7.47452 4.49459 0.24016 -25.13238 -1.32283 0.88151 22.68209 -62.29925 -72.1808 22.73 72.77751 -25.27968 -1.63322 46.26194 71.58676 47.43614 15.17204 -91.29549 -28.93793 4.57849 -1.25469 7.17374 -1.94957 -9.75055 1.68047 -4.05245 -9.2507 -1.18184 1.63166 0.44752 -8.05273 6.10791 5.22834 9.08024
-0.00056 0.57925 -0.00163 180.24623 0 -3.7006 7.44641 4.49382 0.24091 -25.11961 -1.25065 0.91651 22.58454 -62.39406 -72.29941 22.70318 72.8936 -25.3226 -1.60464 46.15412 71.46235 47.40773 15.28295 -91.03416 -28.89131 4.59391 -1.20651 7.17849 -1.92194 -9.81719 1.63399 -4.05355 -9.27857 -1.16723 1.63879 0.47546 -8.0658 6.10716 5.22834 9.07297
-0.00017 0.57936 -0.00156 180.15622 0 -3.71447 7.37983 4.52627 0.26168 -25.11713 -1.1969 0.97047 22.61089 -62.47876 -72.30165 22.66565 72.98735 -25.30741 -1.61452 45.9559 71.30034 47.42809 15.42129 -90.5852 -28.88106 4.51683 -0.93097 7.17033 -1.71304 -10.2244 1.53113 -4.01261 -9.38231 -1.03495 1.63844 0.51792 -8.25585 6.10009 5.23594 9.13965
0.00037 0.57949 -0.00144 180.03465 0 -3.7319 7.29422 4.57066 0.29432 -25.12175 -1.14895 1.03492 22.72043 -62.56144 -72.21593 22.63007 73.08918 -25.29529 -1.64062 45.77206 71.10893 47.37629 15.61789 -90.04983 -28.90493 4.40481 -0.55318 7.15621 -1.43997 -10.7815 1.40638 -3.95726 -9.51038 -0.8474 1.63412 0.57002 -8.52536 6.09055 5.24719 9.235
0.00089 0.57962 -0.00133 179.92405 0 -3.74728 7.21197 4.60831 0.32615 -25.12632 -1.09511 1.10007 22.83336 -62.65172 -72.12341 22.59859 73.19926 -25.31476 -1.66196 45.63302 70.91196 47.26209 15.84174 -89.52387 -28.93585 4.30521 -0.19931 7.14341 -1.19848 -11.30175 1.2913 -3.90983 -9.6249 -0.67112 1.62976 0.62035 -8.77601 6.08165 5.25784 9.32011
0.0012 0.57974 -0.00127 179.82685 0 -3.76398 7.15314 4.65185 0.34035 -25.11818 -1.05596 1.14258 22.76245 -62.71698 -72.249 22.54155 73.25398 -25.19983 -1.67155 45.27712 70.79553 47.55486 15.83303 -89.1008 -28.86547 4.21806 0.05983 7.13633 -0.94573 -11.6923 1.17798 -3.857 -9.75177 -0.55407 1.63232 0.65761 -8.95411 6.0747 5.26452 9.39538
